<?xml version="1.0" encoding="UTF-8"?>
<svg version="1.1" xmlns="http://www.w3.org/2000/svg" width="512" height="512">
<path d="M0 0 C0.90128632 -0.01283524 1.80257263 -0.02567047 2.73117065 -0.03889465 C3.69789703 -0.04628159 4.66462341 -0.05366852 5.66064453 -0.0612793 C7.16233688 -0.07338692 7.16233688 -0.07338692 8.69436646 -0.08573914 C10.81087523 -0.09955683 12.92740608 -0.11028932 15.04394531 -0.11816406 C18.27468077 -0.13539789 21.50439817 -0.17930777 24.73486328 -0.22338867 C26.79344953 -0.23351444 28.85204444 -0.24203091 30.91064453 -0.2487793 C31.87332245 -0.26628738 32.83600037 -0.28379547 33.82785034 -0.30183411 C39.68853708 -0.28294251 42.93835725 0.30859439 47.41845703 4.17700195 C50.20552648 7.82818464 50.98777423 11.19866118 51.79345703 15.67700195 C52.95931163 21.12999384 53.88473368 23.92202108 58.41845703 27.17700195 C62.1410858 29.03831634 66.35578752 28.60136682 70.41845703 28.17700195 C73.89470149 26.72329973 75.72092263 25.62616525 77.37548828 22.1887207 C78.4371785 19.16055007 79.22390705 16.13268608 79.86376953 12.98950195 C81.2093058 6.53092789 84.05050441 3.75563703 89.41845703 0.17700195 C92.47224426 -0.09042358 92.47224426 -0.09042358 96.27319336 -0.11352539 C96.96625076 -0.12024261 97.65930817 -0.12695984 98.37336731 -0.13388062 C100.66581383 -0.15288614 102.95796786 -0.15678634 105.25048828 -0.15893555 C106.84608582 -0.16536278 108.44168217 -0.17209109 110.03727722 -0.17910767 C113.38384736 -0.19108756 116.73031423 -0.19478787 120.0769043 -0.19360352 C124.35761131 -0.19340053 128.63765292 -0.22067796 132.9182024 -0.25514793 C136.21513384 -0.27742932 139.51190563 -0.28144065 142.80890465 -0.28038406 C144.38651506 -0.28273911 145.96412993 -0.2915573 147.54166603 -0.3070488 C149.75342414 -0.32673072 151.9637541 -0.32086322 154.17553711 -0.30883789 C156.06058708 -0.31311295 156.06058708 -0.31311295 157.98371887 -0.31747437 C162.97066156 0.40046247 166.16743385 2.53810695 169.20751953 6.52075195 C170.59553232 9.56542517 171.20146491 12.38644835 171.79345703 15.67700195 C172.95931163 21.12999384 173.88473368 23.92202108 178.41845703 27.17700195 C182.1410858 29.03831634 186.35578752 28.60136682 190.41845703 28.17700195 C193.89470149 26.72329973 195.72092263 25.62616525 197.37548828 22.1887207 C198.4371785 19.16055007 199.22390705 16.13268608 199.86376953 12.98950195 C201.2093058 6.53092789 204.05050441 3.75563703 209.41845703 0.17700195 C212.47224426 -0.09042358 212.47224426 -0.09042358 216.27319336 -0.11352539 C216.96625076 -0.12024261 217.65930817 -0.12695984 218.37336731 -0.13388062 C220.66581383 -0.15288614 222.95796786 -0.15678634 225.25048828 -0.15893555 C226.84608582 -0.16536278 228.44168217 -0.17209109 230.03727722 -0.17910767 C233.38384736 -0.19108756 236.73031423 -0.19478787 240.0769043 -0.19360352 C244.35761131 -0.19340053 248.63765292 -0.22067796 252.9182024 -0.25514793 C256.21513384 -0.27742932 259.51190563 -0.28144065 262.80890465 -0.28038406 C264.38651506 -0.28273911 265.96412993 -0.2915573 267.54166603 -0.3070488 C269.75342414 -0.32673072 271.9637541 -0.32086322 274.17553711 -0.30883789 C276.06058708 -0.31311295 276.06058708 -0.31311295 277.98371887 -0.31747437 C282.97066156 0.40046247 286.16743385 2.53810695 289.20751953 6.52075195 C290.59553232 9.56542517 291.20146491 12.38644835 291.79345703 15.67700195 C292.95931163 21.12999384 293.88473368 23.92202108 298.41845703 27.17700195 C302.1410858 29.03831634 306.35578752 28.60136682 310.41845703 28.17700195 C313.89470149 26.72329973 315.72092263 25.62616525 317.37548828 22.1887207 C318.4371785 19.16055007 319.22390705 16.13268608 319.86376953 12.98950195 C321.2093058 6.53092789 324.05050441 3.75563703 329.41845703 0.17700195 C331.43807983 -0.09715271 331.43807983 -0.09715271 333.77539062 -0.12939453 C335.09354263 -0.15337563 335.09354263 -0.15337563 336.43832397 -0.17784119 C337.38825226 -0.18320389 338.33818054 -0.18856659 339.31689453 -0.1940918 C340.79580673 -0.20763451 340.79580673 -0.20763451 342.30459595 -0.22145081 C344.39769451 -0.23597317 346.49083868 -0.24484496 348.58398438 -0.24853516 C351.7470692 -0.26032514 354.90813407 -0.30939988 358.07080078 -0.36010742 C374.82165235 -0.49538411 386.56959765 1.91114202 399.09033203 13.7590332 C406.28349344 21.37859335 410.52997722 31.152109 410.56105804 41.55021286 C410.56736598 42.86996699 410.57367393 44.18972112 410.58017302 45.5494678 C410.58215659 47.01782134 410.58403355 48.48617502 410.58581543 49.95452881 C410.59126235 51.5114555 410.59712587 53.06838077 410.60337114 54.62530446 C410.61922512 58.91061219 410.62873859 63.19591419 410.63713598 67.48124218 C410.6451398 71.15507696 410.65683029 74.82889628 410.66855079 78.5027208 C410.71045192 91.65975274 410.73766078 104.81680284 410.76220703 117.97387695 C410.76418193 119.01199056 410.76615683 120.05010416 410.76819158 121.11967576 C410.80734897 141.72852996 410.84105502 162.33739019 410.86327362 182.94626999 C410.86824299 187.47695678 410.87328731 192.00764347 410.87841797 196.53833008 C410.88032398 198.22746792 410.88032398 198.22746792 410.88226849 199.95072976 C410.90363711 218.20016524 410.95264207 236.44942088 411.01266211 254.69876584 C411.07375988 273.43001481 411.10845794 292.16117092 411.11774683 310.89251828 C411.12366126 321.41160136 411.14144907 331.93037959 411.18913269 342.44936371 C411.22969697 351.40607301 411.24662518 360.3624277 411.23247987 369.3192248 C411.2260052 373.8895357 411.23091301 378.45909102 411.26635361 383.02928543 C411.29854755 387.21438633 411.29835838 391.39819797 411.27253658 395.5833315 C411.26888674 397.09615027 411.27705405 398.60905407 411.29831809 400.12172779 C411.46601533 412.81765288 411.46601533 412.81765288 407.13074207 417.85908985 C405.92063925 418.99489409 404.68567379 420.1052922 403.41845703 421.17700195 C402.29910782 422.35864253 402.29910782 422.35864253 401.1571455 423.56415462 C400.50250474 424.21917241 399.84786398 424.8741902 399.17338562 425.54905701 C398.40937943 426.31588303 397.64537323 427.08270905 396.85821533 427.87277222 C395.63832916 429.08962204 395.63832916 429.08962204 394.39379883 430.33105469 C393.0803524 431.64712959 393.0803524 431.64712959 391.7403717 432.98979187 C389.36242854 435.37135617 386.98229127 437.7506823 384.60094428 440.12884021 C382.10198929 442.62524615 379.6054945 445.12411053 377.1085968 447.62257385 C372.92355763 451.8094253 368.73642965 455.99417906 364.5480957 460.17773438 C359.70470511 465.01566279 354.86495616 469.85721186 350.02704114 474.70061535 C345.86483513 478.86735394 341.7006905 483.03214759 337.53490764 487.19531018 C335.05009877 489.67855982 332.56597118 492.16248086 330.08359337 494.64816093 C327.32396359 497.41120647 324.56027329 500.17016773 321.79614258 502.92871094 C320.97276398 503.75411377 320.14938538 504.5795166 319.30105591 505.42993164 C318.1761953 506.55056252 318.1761953 506.55056252 317.02861023 507.6938324 C316.3758546 508.346211 315.72309896 508.99858961 315.05056286 509.67073727 C312.14846623 512.34907197 310.12310296 512.30459338 306.27358532 512.31401634 C305.17686731 512.31909088 304.08014929 512.32416543 302.9501974 512.32939374 C301.73535098 512.3298915 300.52050455 512.33038926 299.2688446 512.3309021 C297.98590556 512.33528435 296.70296652 512.33966661 295.38115054 512.34418166 C291.8078708 512.35616677 288.23460456 512.36180014 284.66130865 512.36636281 C280.81169774 512.37231198 276.96210304 512.38392393 273.11250305 512.39465332 C263.80655992 512.41919924 254.50061141 512.43381087 245.19464585 512.44671339 C242.56559406 512.45042475 239.9365428 512.45439806 237.30749154 512.45846605 C220.97963343 512.48371 204.6517745 512.50576218 188.32390118 512.5181942 C184.5399087 512.5211239 180.75591624 512.52408555 176.97192383 512.52709961 C175.56118398 512.52821869 175.56118398 512.52821869 174.12194435 512.52936037 C158.90212675 512.54200145 143.68242632 512.57520561 128.46266343 512.61690144 C112.83333505 512.65936765 97.20406654 512.68289494 81.57468063 512.68811476 C72.80095015 512.69152437 64.02740248 512.7032256 55.25372887 512.7362175 C47.77752686 512.76428412 40.30154511 512.77518864 32.82529452 512.76402204 C29.01396753 512.7588515 25.20310129 512.76161628 21.39184189 512.78648758 C17.24920844 512.81329405 13.10757931 512.80086478 8.96488953 512.78500366 C7.77458104 512.79888575 6.58427256 512.81276784 5.35789412 512.82707059 C-8.14705892 512.70020623 -18.5630451 507.76459924 -28.25341797 498.5949707 C-35.8081499 490.59240673 -39.73725325 480.6647748 -39.71855736 469.81824589 C-39.72120918 469.0712641 -39.72386101 468.3242823 -39.7265932 467.5546647 C-39.73428685 465.03757494 -39.7348454 462.52053396 -39.73544312 460.00343323 C-39.73945771 458.18608329 -39.74389592 456.36873425 -39.74872267 454.5513863 C-39.76069461 449.5460267 -39.76633808 444.54067674 -39.77090383 439.53530562 C-39.77685763 434.14106909 -39.78846811 428.7468441 -39.79919434 423.35261536 C-39.82372449 410.31888499 -39.83834695 397.28515079 -39.8512544 384.25140443 C-39.85496607 380.57019274 -39.85893932 376.88898143 -39.86300707 373.20777011 C-39.8882447 350.34955168 -39.91029857 327.49133266 -39.92273521 304.63310337 C-39.92566493 299.33759624 -39.92862659 294.04208912 -39.93164062 288.74658203 C-39.9327597 286.7723125 -39.9327597 286.7723125 -39.93390138 284.75815874 C-39.94655288 263.44054583 -39.97977271 242.1230333 -40.02144246 220.80545593 C-40.06387097 198.9203158 -40.08743137 177.03521838 -40.09265578 155.15003723 C-40.09606898 142.86191105 -40.1078135 130.57391524 -40.14075851 118.28582954 C-40.16877279 107.81965197 -40.17975226 97.3536315 -40.16856305 86.88741935 C-40.16337989 81.54907804 -40.16624128 76.21106565 -40.19102859 70.87277222 C-40.21355636 65.98016537 -40.21275363 61.08812306 -40.19382472 56.19550609 C-40.19102967 54.43092989 -40.19659558 52.66631512 -40.21163766 50.90180082 C-40.33917279 34.95907989 -36.99863848 23.05395563 -25.74169922 11.24731445 C-18.80582675 4.63766911 -9.66902264 0.12045459 0 0 Z " fill="#298DFF" transform="translate(70.58154296875,-0.177001953125)"/>
<path d="M0 0 C1.51346082 -0.00935994 1.51346082 -0.00935994 3.05749661 -0.01890898 C6.43074669 -0.03483478 9.80327377 -0.0222358 13.17652893 -0.00964355 C15.59805217 -0.01506486 18.01957212 -0.02218757 20.44108582 -0.03088379 C26.3310719 -0.04722653 32.22087096 -0.04483879 38.11085182 -0.03323323 C42.89943969 -0.02418956 47.68797044 -0.02297893 52.47656441 -0.02732849 C53.49994843 -0.02824789 53.49994843 -0.02824789 54.54400687 -0.02918586 C55.9301293 -0.0304648 57.31625171 -0.03176166 58.70237411 -0.03307623 C71.69277982 -0.04447577 84.68307254 -0.03137864 97.67345972 -0.00987476 C108.81109538 0.00799167 119.94856425 0.00489472 131.0861969 -0.0135498 C144.02943274 -0.03497456 156.97256956 -0.04337296 169.91582066 -0.03110075 C171.29707116 -0.0298266 172.67832168 -0.02856911 174.05957222 -0.02732849 C175.07888916 -0.02640284 175.07888916 -0.02640284 176.11879836 -0.02545848 C180.89912303 -0.02201009 185.67938471 -0.02782297 190.45969963 -0.0372467 C196.89889319 -0.04966197 203.33784623 -0.04077348 209.77701187 -0.01766968 C212.13927373 -0.012384 214.50156211 -0.01389389 216.8638134 -0.02272034 C220.09055514 -0.03366456 223.31629095 -0.01992447 226.54296875 0 C227.47595541 -0.00892289 228.40894207 -0.01784577 229.37020105 -0.02703905 C235.25430978 0.04334668 239.98998016 1.00361479 244.8349762 4.50793457 C247.60367958 7.65079412 248.73037738 10.78881773 249.3349762 14.94543457 C248.72026038 19.32528478 247.7860813 23.1322601 244.8349762 26.50793457 C238.89681498 30.50072753 233.55412367 31.08292234 226.54296875 31.01586914 C225.02716794 31.02522908 225.02716794 31.02522908 223.4807449 31.03477812 C220.10826606 31.0506815 216.73651262 31.03811382 213.36402893 31.0255127 C210.94073567 31.03093493 208.51744571 31.03805816 206.09416199 31.04675293 C200.20398007 31.06308488 194.31398528 31.06071404 188.42380863 31.04910237 C183.63571282 31.04005536 178.84767413 31.0388495 174.05957222 31.04319763 C173.03595835 31.04411703 173.03595835 31.04411703 171.99166541 31.045055 C170.60521879 31.04633395 169.21877218 31.0476308 167.83232559 31.04894537 C154.84385329 31.06034071 141.85549409 31.04725349 128.86704034 31.0257439 C117.72909844 31.00786981 106.5913233 31.01098155 95.4533844 31.02941895 C82.50868599 31.05083726 69.56408656 31.0592464 56.6193729 31.04696989 C55.23843675 31.04569574 53.85750059 31.04443825 52.47656441 31.04319763 C51.79717406 31.04258053 51.11778371 31.04196343 50.41780577 31.04132763 C45.63649877 31.0378779 40.8552547 31.04369482 36.07395744 31.05311584 C29.63639522 31.06552199 23.19907372 31.05665751 16.76153946 31.03353882 C14.39885672 31.02824924 12.03614747 31.0297697 9.67347527 31.03858948 C6.44862545 31.04951802 3.22478546 31.03581271 0 31.01586914 C-1.40282607 31.02925347 -1.40282607 31.02925347 -2.83399206 31.04290819 C-8.78467932 30.97151254 -12.27566549 29.95226329 -17.1650238 26.50793457 C-20.00398094 23.05707188 -21.05039905 19.32463596 -21.6650238 14.94543457 C-21.06315985 10.8076199 -20.03984848 7.59891148 -17.1650238 4.50793457 C-11.35259386 0.4401721 -6.9959797 -0.06674848 0 0 Z " fill="#E9F5FF" transform="translate(142.16502380371094,210.4920654296875)"/>
<path d="M0 0 C1.51346082 -0.00935994 1.51346082 -0.00935994 3.05749661 -0.01890898 C6.43074669 -0.03483478 9.80327377 -0.0222358 13.17652893 -0.00964355 C15.59805217 -0.01506486 18.01957212 -0.02218757 20.44108582 -0.03088379 C26.3310719 -0.04722653 32.22087096 -0.04483879 38.11085182 -0.03323323 C42.89943969 -0.02418956 47.68797044 -0.02297893 52.47656441 -0.02732849 C53.49994843 -0.02824789 53.49994843 -0.02824789 54.54400687 -0.02918586 C55.9301293 -0.0304648 57.31625171 -0.03176166 58.70237411 -0.03307623 C71.69277982 -0.04447577 84.68307254 -0.03137864 97.67345972 -0.00987476 C108.81109538 0.00799167 119.94856425 0.00489472 131.0861969 -0.0135498 C144.02943274 -0.03497456 156.97256956 -0.04337296 169.91582066 -0.03110075 C171.29707116 -0.0298266 172.67832168 -0.02856911 174.05957222 -0.02732849 C175.07888916 -0.02640284 175.07888916 -0.02640284 176.11879836 -0.02545848 C180.89912303 -0.02201009 185.67938471 -0.02782297 190.45969963 -0.0372467 C196.89889319 -0.04966197 203.33784623 -0.04077348 209.77701187 -0.01766968 C212.13927373 -0.012384 214.50156211 -0.01389389 216.8638134 -0.02272034 C220.09055514 -0.03366456 223.31629095 -0.01992447 226.54296875 0 C227.47595541 -0.00892289 228.40894207 -0.01784577 229.37020105 -0.02703905 C235.25430978 0.04334668 239.98998016 1.00361479 244.8349762 4.50793457 C247.60367958 7.65079412 248.73037738 10.78881773 249.3349762 14.94543457 C248.72026038 19.32528478 247.7860813 23.1322601 244.8349762 26.50793457 C238.89681498 30.50072753 233.55412367 31.08292234 226.54296875 31.01586914 C225.02716794 31.02522908 225.02716794 31.02522908 223.4807449 31.03477812 C220.10826606 31.0506815 216.73651262 31.03811382 213.36402893 31.0255127 C210.94073567 31.03093493 208.51744571 31.03805816 206.09416199 31.04675293 C200.20398007 31.06308488 194.31398528 31.06071404 188.42380863 31.04910237 C183.63571282 31.04005536 178.84767413 31.0388495 174.05957222 31.04319763 C173.03595835 31.04411703 173.03595835 31.04411703 171.99166541 31.045055 C170.60521879 31.04633395 169.21877218 31.0476308 167.83232559 31.04894537 C154.84385329 31.06034071 141.85549409 31.04725349 128.86704034 31.0257439 C117.72909844 31.00786981 106.5913233 31.01098155 95.4533844 31.02941895 C82.50868599 31.05083726 69.56408656 31.0592464 56.6193729 31.04696989 C55.23843675 31.04569574 53.85750059 31.04443825 52.47656441 31.04319763 C51.79717406 31.04258053 51.11778371 31.04196343 50.41780577 31.04132763 C45.63649877 31.0378779 40.8552547 31.04369482 36.07395744 31.05311584 C29.63639522 31.06552199 23.19907372 31.05665751 16.76153946 31.03353882 C14.39885672 31.02824924 12.03614747 31.0297697 9.67347527 31.03858948 C6.44862545 31.04951802 3.22478546 31.03581271 0 31.01586914 C-1.40282607 31.02925347 -1.40282607 31.02925347 -2.83399206 31.04290819 C-8.78467932 30.97151254 -12.27566549 29.95226329 -17.1650238 26.50793457 C-20.00398094 23.05707188 -21.05039905 19.32463596 -21.6650238 14.94543457 C-21.06315985 10.8076199 -20.03984848 7.59891148 -17.1650238 4.50793457 C-11.35259386 0.4401721 -6.9959797 -0.06674848 0 0 Z " fill="#E9F5FF" transform="translate(142.16502380371094,150.4920654296875)"/>
<path d="M0 0 C1.51346082 -0.00935994 1.51346082 -0.00935994 3.05749661 -0.01890898 C6.43074669 -0.03483478 9.80327377 -0.0222358 13.17652893 -0.00964355 C15.59805217 -0.01506486 18.01957212 -0.02218757 20.44108582 -0.03088379 C26.3310719 -0.04722653 32.22087096 -0.04483879 38.11085182 -0.03323323 C42.89943969 -0.02418956 47.68797044 -0.02297893 52.47656441 -0.02732849 C53.49994843 -0.02824789 53.49994843 -0.02824789 54.54400687 -0.02918586 C55.9301293 -0.0304648 57.31625171 -0.03176166 58.70237411 -0.03307623 C71.69277982 -0.04447577 84.68307254 -0.03137864 97.67345972 -0.00987476 C108.81109538 0.00799167 119.94856425 0.00489472 131.0861969 -0.0135498 C144.02943274 -0.03497456 156.97256956 -0.04337296 169.91582066 -0.03110075 C171.29707116 -0.0298266 172.67832168 -0.02856911 174.05957222 -0.02732849 C175.07888916 -0.02640284 175.07888916 -0.02640284 176.11879836 -0.02545848 C180.89912303 -0.02201009 185.67938471 -0.02782297 190.45969963 -0.0372467 C196.89889319 -0.04966197 203.33784623 -0.04077348 209.77701187 -0.01766968 C212.13927373 -0.012384 214.50156211 -0.01389389 216.8638134 -0.02272034 C220.09055514 -0.03366456 223.31629095 -0.01992447 226.54296875 0 C227.47595541 -0.00892289 228.40894207 -0.01784577 229.37020105 -0.02703905 C235.25430978 0.04334668 239.98998016 1.00361479 244.8349762 4.50793457 C247.60367958 7.65079412 248.73037738 10.78881773 249.3349762 14.94543457 C248.72026038 19.32528478 247.7860813 23.1322601 244.8349762 26.50793457 C238.89957766 30.49735504 233.55728499 31.08453929 226.54969788 31.02259827 C225.03495542 31.03301656 225.03495542 31.03301656 223.4896121 31.04364532 C220.11948011 31.06188269 216.75005464 31.05165976 213.37989807 31.04138184 C210.95822626 31.04844187 208.53655887 31.05718724 206.11489868 31.06748962 C200.22840055 31.08764799 194.34208076 31.08901393 188.45557034 31.08086408 C183.66986484 31.0745544 178.88421566 31.07570996 174.09851074 31.08213615 C173.07532996 31.08348864 173.07532996 31.08348864 172.03147885 31.08486844 C170.64559796 31.08671971 169.25971708 31.08858227 167.87383622 31.090456 C154.89010798 31.10701925 141.90648855 31.09832757 128.92276686 31.08147042 C117.05280892 31.06677191 105.18310407 31.08140647 93.31317872 31.11024059 C81.11324533 31.13965481 68.91342868 31.15060117 56.7134614 31.14105839 C55.33278817 31.14003587 53.95211492 31.13904126 52.57144165 31.13807487 C51.55256719 31.13736029 51.55256719 31.13736029 50.51310942 31.13663127 C45.73525695 31.13446996 40.95751538 31.14425596 36.1796875 31.1588459 C29.74455042 31.17822337 23.30976892 31.17125519 16.87464714 31.1466465 C14.51399407 31.14163594 12.15330518 31.14513462 9.79268074 31.15779495 C6.5679973 31.17372038 3.34486487 31.15877764 0.12025452 31.13612366 C-1.27820229 31.15387725 -1.27820229 31.15387725 -2.70491076 31.1719895 C-8.93751331 31.08314144 -13.43076513 29.6967439 -18.1650238 25.50793457 C-20.95039603 20.80761894 -21.84293066 16.93118944 -21.1650238 11.50793457 C-19.40076233 6.51969528 -16.97808941 3.97697566 -12.29237354 1.37333775 C-8.30013751 -0.25069881 -4.2548208 -0.04059514 0 0 Z " fill="#E9F5FF" transform="translate(142.16502380371094,270.4920654296875)"/>
<path d="M0 0 C1.82129507 0.01121399 3.64260845 0.01974374 5.46392822 0.02572632 C10.21870376 0.04845164 14.97235007 0.10723043 19.72668457 0.1739502 C24.59367606 0.23572802 29.46085303 0.26281655 34.328125 0.29296875 C43.84944992 0.35699267 53.36994295 0.4591701 62.890625 0.5859375 C63.4317996 3.67836377 63.4246515 5.7866683 61.64930439 8.44380283 C59.79824432 10.56834099 57.87362064 12.58390028 55.890625 14.5859375 C55.20494635 15.29526365 54.51926769 16.00458981 53.8128109 16.73541069 C51.5165738 19.09026487 49.19458797 21.41716509 46.8659668 23.73999023 C45.99033585 24.6173735 45.1147049 25.49475677 44.21253967 26.39872742 C41.83459651 28.78029172 39.45445923 31.15961785 37.07311225 33.53777575 C34.57415726 36.03418169 32.07766247 38.53304608 29.58076477 41.0315094 C25.3957256 45.21836084 21.20859762 49.40311461 17.02026367 53.58666992 C12.17687308 58.42459833 7.33712413 63.2661474 2.49920911 68.10955089 C-1.6629969 72.27628949 -5.82714154 76.44108314 -9.99292439 80.60424572 C-12.47773326 83.08749537 -14.96186085 85.57141641 -17.44423866 88.05709648 C-20.20386844 90.82014202 -22.96755874 93.57910328 -25.73168945 96.33764648 C-26.55506805 97.16304932 -27.37844666 97.98845215 -28.22677612 98.83886719 C-28.9766832 99.58595444 -29.72659027 100.33304169 -30.4992218 101.10276794 C-31.15197743 101.75514655 -31.80473307 102.40752516 -32.47726917 103.07967281 C-35.58609242 105.94879478 -37.99864643 105.67530116 -42.109375 105.5859375 C-42.20233946 95.1976336 -42.27327371 84.80942979 -42.31662369 74.42079353 C-42.33743684 69.59613401 -42.36563901 64.77176055 -42.41113281 59.94726562 C-42.45481543 55.28529958 -42.4785592 50.6236075 -42.48888397 45.96145248 C-42.49623531 44.18896044 -42.5105902 42.41648221 -42.53229523 40.64410782 C-42.67709036 28.32274294 -42.28985392 17.78208688 -33.237854 8.39517212 C-23.04684892 -0.26731371 -12.63223142 -0.23052551 0 0 Z " fill="#C3E5FF" transform="translate(418.109375,406.4140625)"/>
<path d="M0 0 C1.84031296 -0.01051392 1.84031296 -0.01051392 3.71780396 -0.02124023 C7.0673435 -0.03578588 10.4158891 -0.03243758 13.76537204 -0.01972389 C17.28101806 -0.00955479 20.79662332 -0.01900058 24.31227112 -0.02526855 C30.21590748 -0.03253461 36.11934334 -0.02298582 42.02294922 -0.00390625 C48.83329812 0.01785062 55.64316773 0.01081592 62.45350498 -0.01121187 C68.31533528 -0.02940785 74.17702191 -0.0319035 80.03887135 -0.0214572 C83.53342952 -0.01524389 87.027763 -0.01432626 90.52230644 -0.02760315 C94.421308 -0.04138326 98.31977992 -0.02224349 102.21875 0 C103.94042641 -0.01214539 103.94042641 -0.01214539 105.69688416 -0.02453613 C112.10047066 0.04299953 117.43194173 0.56242468 122.67407227 4.51757812 C125.97821673 8.38429445 127.41676784 12.26126687 127.12329102 17.46289062 C126.03917482 22.42154381 123.52099269 26.265306 119.33810425 29.10144043 C114.01615639 31.15835778 109.02934086 30.95176411 103.36987305 30.9375 C102.1333902 30.94596954 100.89690735 30.95443909 99.62295532 30.96316528 C96.2425377 30.98251922 92.86267284 30.98831496 89.48223734 30.98641777 C86.65436496 30.98629779 83.82654379 30.99487329 80.99868572 31.00319529 C74.32355171 31.02240858 67.64854275 31.02532091 60.97338867 31.01855469 C54.1010929 31.01191645 47.22933421 31.03477365 40.35714734 31.07186842 C34.44439239 31.10261911 28.53180973 31.11391964 22.61897647 31.1100316 C19.09301936 31.10796947 15.56748023 31.11335932 12.04159927 31.13792419 C8.10654113 31.16443578 4.17218011 31.15042237 0.23706055 31.1328125 C-0.92164551 31.14607574 -2.08035156 31.15933899 -3.27416992 31.17300415 C-10.08703286 31.10225336 -15.20435018 30.29195596 -20.32592773 25.51757812 C-23.11129996 20.81726249 -24.00383459 16.940833 -23.32592773 11.51757812 C-21.59530515 6.62444881 -19.19236637 3.94021306 -14.5863018 1.38360596 C-9.91344516 -0.40672776 -4.93919101 -0.03478166 0 0 Z " fill="#E4F3FF" transform="translate(144.325927734375,330.482421875)"/>
</svg>
